<svg viewBox="0 0 512 512" xmlns="http://www.w3.org/2000/svg"><path d="m45 0h272c24.902344 0 45 20.097656 45 45v317l-30 30h-302l-30-30v-317c0-24.902344 20.097656-45 45-45zm0 0" fill="#ececf1"/><path d="m181 0h136c24.902344 0 45 20.097656 45 45v317l-30 30h-151zm0 0" fill="#d3d3d8"/><path d="m45 30h272c8.402344 0 15 6.597656 15 15v347h-302v-347c0-8.402344 6.597656-15 15-15zm0 0" fill="#46f8ff"/><path d="m181 30h136c8.402344 0 15 6.597656 15 15v347h-151zm0 0" fill="#00e7f0"/><path d="m0 362h362v45c0 24.902344-20.097656 45-45 45h-272c-24.902344 0-45-20.097656-45-45zm0 0" fill="#ececf1"/><path d="m181 362h181v45c0 24.902344-20.097656 45-45 45h-136zm0 0" fill="#d3d3d8"/><path d="m236.5 207.5-60 60c-2.699219 3-6.601562 4.5-10.5 4.5s-7.800781-1.5-10.5-4.5l-30-30c-6-5.699219-6-15.300781 0-21 5.699219-6 15.300781-6 21 0l19.5 19.199219 15-15 34.5-34.199219c5.699219-6 15.300781-6 21 0 6 5.699219 6 15.300781 0 21zm0 0" fill="#4a696f"/><path d="m467 122h-150c-24.902344 0-45 20.097656-45 45v300c0 24.902344 20.097656 45 45 45h150c24.902344 0 45-20.097656 45-45v-300c0-24.902344-20.097656-45-45-45zm0 0" fill="#3e5959"/><path d="m467 122h-75v390h75c24.902344 0 45-20.097656 45-45v-300c0-24.902344-20.097656-45-45-45zm0 0" fill="#384949"/><path d="m302 212h180v210h-180zm0 0" fill="#bdfdff"/><path d="m392 212h90v210h-90zm0 0" fill="#9bfbff"/><path d="m447.5 297.5-60 60c-5.699219 6-15.300781 6-21 0l-30-30c-6-5.699219-6-15.300781 0-21 5.699219-6 15.296875-6 21 0l19.5 19.199219 15-15 34.5-34.199219c5.699219-6 15.300781-6 21 0 6 5.699219 6 15.300781 0 21zm0 0" fill="#4a696f"/><g fill="#3e5959"><path d="m447.5 297.5-55.5 55.5v-42.300781l34.5-34.199219c5.699219-6 15.300781-6 21 0 6 5.699219 6 15.300781 0 21zm0 0"/><path d="m236.5 207.5-55.5 55.5v-42.300781l34.5-34.199219c5.699219-6 15.300781-6 21 0 6 5.699219 6 15.300781 0 21zm0 0"/></g></svg>