<?xml version="1.0" encoding="iso-8859-1"?>
<!-- Generator: Adobe Illustrator 21.0.0, SVG Export Plug-In . SVG Version: 6.00 Build 0)  -->
<svg version="1.1" id="Capa_1" xmlns="http://www.w3.org/2000/svg" xmlns:xlink="http://www.w3.org/1999/xlink" x="0px" y="0px"
	 viewBox="0 0 512 512" style="enable-background:new 0 0 512 512;" xml:space="preserve">
<g>
	<g transform="translate(1 1)">
		<g>
			<rect x="178.2" y="310.467" style="fill:#A4C2F7;" width="128" height="93.867"/>
			<path style="fill:#A4C2F7;" d="M357.4,404.333V421.4H177.859l0.171-17.067l0.171-17.067h162.133
				C349.747,387.295,357.372,394.919,357.4,404.333z"/>
		</g>
		<g>
			<polygon style="fill:#E3E7F2;" points="280.6,310.467 280.6,404.333 178.029,404.333 178.2,387.267 178.2,310.467 			"/>
			<path style="fill:#E3E7F2;" d="M331.8,404.333V421.4H177.859l0.171-17.067l0.171-17.067h136.533
				C324.147,387.295,331.772,394.919,331.8,404.333z"/>
		</g>
		<path style="fill:#A4C2F7;" d="M417.133,97.133v213.333H92.867V97.133C92.867,78.282,108.149,63,127,63h256
			C401.851,63,417.133,78.282,417.133,97.133z"/>
		
			<linearGradient id="SVGID_1_" gradientUnits="userSpaceOnUse" x1="-49.7763" y1="651.4294" x2="-48.8955" y2="650.3664" gradientTransform="matrix(298.6667 0 0 -247.4667 14977.2012 161272.2813)">
			<stop  offset="0" style="stop-color:#D3DFF2"/>
			<stop  offset="0.172" style="stop-color:#D3DFF2"/>
			<stop  offset="0.2" style="stop-color:#D3DFF2"/>
			<stop  offset="0.2" style="stop-color:#DAE2F2"/>
			<stop  offset="0.201" style="stop-color:#EBEAF2"/>
			<stop  offset="0.201" style="stop-color:#F6EFF2"/>
			<stop  offset="0.202" style="stop-color:#FDF2F2"/>
			<stop  offset="0.205" style="stop-color:#FFF3F2"/>
			<stop  offset="0.252" style="stop-color:#FFF3F2"/>
			<stop  offset="0.26" style="stop-color:#FFF3F2"/>
			<stop  offset="0.26" style="stop-color:#D3DFF2"/>
			<stop  offset="0.397" style="stop-color:#D3DFF2"/>
			<stop  offset="0.42" style="stop-color:#D3DFF2"/>
			<stop  offset="0.42" style="stop-color:#DAE2F2"/>
			<stop  offset="0.421" style="stop-color:#EBEAF2"/>
			<stop  offset="0.421" style="stop-color:#F6EFF2"/>
			<stop  offset="0.422" style="stop-color:#FDF2F2"/>
			<stop  offset="0.425" style="stop-color:#FFF3F2"/>
			<stop  offset="0.489" style="stop-color:#FFF3F2"/>
			<stop  offset="0.5" style="stop-color:#FFF3F2"/>
			<stop  offset="0.5" style="stop-color:#F8F0F2"/>
			<stop  offset="0.5" style="stop-color:#E7E8F2"/>
			<stop  offset="0.5" style="stop-color:#DCE3F2"/>
			<stop  offset="0.5" style="stop-color:#D5E0F2"/>
			<stop  offset="0.501" style="stop-color:#D3DFF2"/>
			<stop  offset="0.706" style="stop-color:#D3DFF2"/>
			<stop  offset="0.74" style="stop-color:#D3DFF2"/>
			<stop  offset="0.741" style="stop-color:#FFF3F2"/>
			<stop  offset="0.835" style="stop-color:#FFF3F2"/>
			<stop  offset="0.85" style="stop-color:#FFF3F2"/>
			<stop  offset="0.851" style="stop-color:#D3DFF2"/>
		</linearGradient>
		<path style="fill:url(#SVGID_1_);" d="M391.533,97.133v213.333H92.867V97.133C92.867,78.282,108.149,63,127,63h230.4
			C376.251,63,391.533,78.282,391.533,97.133z"/>
		<g>
			<path style="fill:#A4C2F7;" d="M178.2,293.4h238.933v41.557c-3.57,0.766-7.212,1.138-10.863,1.109H178.2V293.4z"/>
			<path style="fill:#A4C2F7;" d="M365.933,293.4v41.557c-3.562,0.762-7.195,1.134-10.837,1.109H169.667V293.4H365.933z"/>
		</g>
		<g>
			<path style="fill:#E3E7F2;" d="M365.933,293.4v41.557c-3.562,0.762-7.195,1.134-10.837,1.109H169.667V293.4H365.933z"/>
			<polyline style="fill:#E3E7F2;" points="502.467,276.333 502.467,421.4 391.533,421.4 391.533,276.333 502.467,276.333 			"/>
			<path style="fill:#E3E7F2;" d="M502.467,277.187V293.4H391.533v-16.213c0-9.897,8.023-17.92,17.92-17.92h75.093
				C494.444,259.267,502.467,267.29,502.467,277.187"/>
			<path style="fill:#E3E7F2;" d="M502.467,412.867v16.213c0,4.753-1.888,9.311-5.249,12.671c-3.361,3.361-7.919,5.249-12.671,5.249
				h-75.093c-9.897,0-17.92-8.023-17.92-17.92v-16.213H502.467"/>
		</g>
		<path style="fill:#CCCCCC;" d="M489.889,260.077h0.077H489.889 M485.246,259.267c1.569,0.058,3.124,0.322,4.625,0.785
			C488.371,259.589,486.816,259.325,485.246,259.267"/>
		<g>
			<path style="fill:#A4C2F7;" d="M502.467,293.4h-25.6v119.467h25.6V293.4 M502.467,276.333c0,0.282,0,0.563,0,0.853V276.333"/>
			<path style="fill:#A4C2F7;" d="M484.547,259.267h-25.6c9.554,0,17.414,7.522,17.835,17.067h0.085V293.4h25.6v-16.213
				c0-0.29,0-0.572,0-0.853h-0.085c-0.326-7.447-5.241-13.91-12.331-16.213h-0.06h-0.077c-1.511-0.49-3.081-0.776-4.668-0.853
				H484.547"/>
			<path style="fill:#A4C2F7;" d="M502.467,412.867h-25.6v16.213c0,9.897-8.023,17.92-17.92,17.92h25.6
				c4.753,0,9.311-1.888,12.671-5.249c3.361-3.361,5.249-7.919,5.249-12.671V412.867"/>
		</g>
		
			<linearGradient id="SVGID_2_" gradientUnits="userSpaceOnUse" x1="-49.6709" y1="651.3811" x2="-48.7901" y2="650.318" gradientTransform="matrix(196.2667 0 0 -221.8667 9771.8672 144709.0781)">
			<stop  offset="0" style="stop-color:#D3DFF2"/>
			<stop  offset="0.172" style="stop-color:#D3DFF2"/>
			<stop  offset="0.2" style="stop-color:#D3DFF2"/>
			<stop  offset="0.2" style="stop-color:#DAE2F2"/>
			<stop  offset="0.201" style="stop-color:#EBEAF2"/>
			<stop  offset="0.201" style="stop-color:#F6EFF2"/>
			<stop  offset="0.202" style="stop-color:#FDF2F2"/>
			<stop  offset="0.205" style="stop-color:#FFF3F2"/>
			<stop  offset="0.252" style="stop-color:#FFF3F2"/>
			<stop  offset="0.26" style="stop-color:#FFF3F2"/>
			<stop  offset="0.26" style="stop-color:#D3DFF2"/>
			<stop  offset="0.397" style="stop-color:#D3DFF2"/>
			<stop  offset="0.42" style="stop-color:#D3DFF2"/>
			<stop  offset="0.42" style="stop-color:#DAE2F2"/>
			<stop  offset="0.421" style="stop-color:#EBEAF2"/>
			<stop  offset="0.421" style="stop-color:#F6EFF2"/>
			<stop  offset="0.422" style="stop-color:#FDF2F2"/>
			<stop  offset="0.425" style="stop-color:#FFF3F2"/>
			<stop  offset="0.489" style="stop-color:#FFF3F2"/>
			<stop  offset="0.5" style="stop-color:#FFF3F2"/>
			<stop  offset="0.5" style="stop-color:#F8F0F2"/>
			<stop  offset="0.5" style="stop-color:#E7E8F2"/>
			<stop  offset="0.5" style="stop-color:#DCE3F2"/>
			<stop  offset="0.5" style="stop-color:#D5E0F2"/>
			<stop  offset="0.501" style="stop-color:#D3DFF2"/>
			<stop  offset="0.706" style="stop-color:#D3DFF2"/>
			<stop  offset="0.74" style="stop-color:#D3DFF2"/>
			<stop  offset="0.741" style="stop-color:#FFF3F2"/>
			<stop  offset="0.835" style="stop-color:#FFF3F2"/>
			<stop  offset="0.85" style="stop-color:#FFF3F2"/>
			<stop  offset="0.851" style="stop-color:#D3DFF2"/>
		</linearGradient>
		<rect x="7.533" y="191" style="fill:url(#SVGID_2_);" width="196.267" height="221.867"/>
		<g>
			<path style="fill:#A4C2F7;" d="M203.8,404.333v12.715c0.005,7.945-3.15,15.566-8.768,21.184
				c-5.618,5.618-13.239,8.772-21.184,8.768H37.485c-7.945,0.005-15.566-3.15-21.184-8.768c-5.618-5.618-8.772-13.239-8.768-21.184
				l0-12.715H203.8z"/>
			<path style="fill:#A4C2F7;" d="M203.8,186.819v12.715H7.533l0-12.715c-0.005-7.945,3.15-15.566,8.768-21.184
				c5.618-5.618,13.239-8.772,21.184-8.768h136.363c7.945-0.005,15.566,3.15,21.184,8.768
				C200.65,171.252,203.805,178.874,203.8,186.819z"/>
		</g>
		<g>
			<path style="fill:#E3E7F2;" d="M178.2,404.333v12.715c0.005,7.945-3.15,15.566-8.768,21.184
				c-5.618,5.618-13.239,8.772-21.184,8.768H37.485c-7.945,0.005-15.566-3.15-21.184-8.768c-5.618-5.618-8.772-13.239-8.768-21.184
				l0-12.715H178.2z"/>
			<path style="fill:#E3E7F2;" d="M178.2,186.819v12.715H7.533l0-12.715c-0.005-7.945,3.15-15.566,8.768-21.184
				c5.618-5.618,13.239-8.772,21.184-8.768h110.763c7.945-0.005,15.566,3.15,21.184,8.768
				C175.05,171.252,178.205,178.874,178.2,186.819z"/>
		</g>
		<g>
			<path style="fill:#FFFFFF;" d="M33.133,417.048V186.819c-0.005-7.945,3.15-15.566,8.768-21.184
				c5.618-5.618,13.239-8.772,21.184-8.768h-25.6c-7.945-0.005-15.566,3.15-21.184,8.768c-5.618,5.618-8.772,13.239-8.768,21.184
				v230.229c-0.005,7.945,3.15,15.566,8.768,21.184c5.618,5.618,13.239,8.772,21.184,8.768h25.6
				c-7.945,0.005-15.566-3.15-21.184-8.768C36.283,432.614,33.129,424.993,33.133,417.048z"/>
			<path style="fill:#FFFFFF;" d="M127,63c-18.851,0-34.133,15.282-34.133,34.133v59.733h25.6V97.133
				C118.467,78.282,133.749,63,152.6,63H127z"/>
		</g>
	</g>
	<g>
		<polygon style="fill:#FFFFFF;" points="17.067,187.853 17.067,298.786 17.067,418.014 0,418.014 0,298.786 0,187.853 		"/>
		<g>
			<path style="fill:#428DFF;" d="M8.533,264.653c2.259-0.033,4.422-0.917,6.059-2.475c3.3-3.365,3.3-8.752,0-12.117l-1.28-1.024
				c-0.475-0.326-0.992-0.587-1.536-0.777c-0.485-0.24-1.003-0.41-1.536-0.503c-0.564-0.095-1.135-0.152-1.707-0.171
				c-2.259,0.033-4.422,0.917-6.059,2.475c-0.769,0.814-1.377,1.767-1.792,2.807c-1.289,3.185-0.587,6.831,1.792,9.31
				c0.818,0.768,1.773,1.376,2.816,1.792C6.317,264.407,7.418,264.639,8.533,264.653z"/>
			<path style="fill:#428DFF;" d="M485.547,251.733h-58.88v-153.6C426.638,74.581,407.552,55.495,384,55.467H128
				c-23.552,0.028-42.638,19.114-42.667,42.667v51.2H38.519C17.256,149.357,0.024,166.589,0,187.853v34.133
				c0,4.713,3.821,8.533,8.533,8.533s8.533-3.821,8.533-8.533v-12.919h179.2V396.8h-179.2V290.253c0-4.713-3.821-8.533-8.533-8.533
				S0,285.54,0,290.253v127.761c0.024,21.264,17.256,38.496,38.519,38.519h136.294c16.241-0.049,30.7-10.294,36.13-25.6H358.4
				c4.713,0,8.533-3.82,8.533-8.533v-17.067c0-14.138-11.462-25.6-25.6-25.6h-25.6V345.6H384v84.48
				c0,14.61,11.844,26.453,26.453,26.453h75.093c14.61,0,26.453-11.844,26.453-26.453V278.187
				C512,263.577,500.156,251.733,485.547,251.733z M401.067,302.933h93.867v102.4h-93.867V302.933z M494.933,278.187v7.68h-93.867
				v-7.68c0-5.184,4.203-9.387,9.387-9.387h75.093C490.731,268.8,494.933,273.003,494.933,278.187z M102.4,98.133
				c0-14.138,11.462-25.6,25.6-25.6h256c14.138,0,25.6,11.462,25.6,25.6v153.685c-14.242,0.46-25.561,12.118-25.6,26.368v7.68
				H213.333v-98.014c-0.024-21.264-17.256-38.496-38.519-38.519H102.4V98.133z M17.067,192v-4.147
				c0.009-11.844,9.609-21.443,21.453-21.453h136.294c11.844,0.009,21.443,9.609,21.453,21.453V192H17.067z M174.814,439.467H38.519
				c-11.844-0.009-21.443-9.609-21.453-21.453v-4.147h179.2v4.147C196.257,429.858,186.658,439.457,174.814,439.467z
				 M349.867,405.333v8.533H213.333V396.8h128C346.046,396.8,349.867,400.621,349.867,405.333z M298.667,379.733h-85.333V345.6
				h85.333V379.733z M307.2,328.533h-93.867v-25.6H384v25.6H307.2z M485.547,439.467h-75.093c-5.184,0-9.387-4.203-9.387-9.387
				v-7.68h93.867v7.68C494.933,435.264,490.731,439.467,485.547,439.467z"/>
		</g>
	</g>
</g>
<g>
</g>
<g>
</g>
<g>
</g>
<g>
</g>
<g>
</g>
<g>
</g>
<g>
</g>
<g>
</g>
<g>
</g>
<g>
</g>
<g>
</g>
<g>
</g>
<g>
</g>
<g>
</g>
<g>
</g>
</svg>
